<?xml version="1.0" encoding="UTF-8"?>
<svg width="256px" height="256px" viewBox="0 0 256 256" version="1.1" xmlns="http://www.w3.org/2000/svg" preserveAspectRatio="xMidYMid">
    <g>
        <path d="M245.44,208.751 L240.38,208.751 L240.38,190.384 L235.082,190.384 L235.082,208.751 L230.023,208.751 L230.023,185.333 L245.44,185.333 L245.44,208.751 Z M225.062,208.751 L219.975,208.751 L219.975,197.876 L212.463,197.876 L212.463,208.751 L207.376,208.751 L207.376,185.333 L212.463,185.333 L212.463,192.825 L219.975,192.825 L219.975,185.333 L225.062,185.333 L225.062,208.751 Z" fill="#F60" fill-rule="nonzero"></path>
        <path d="M188.672,151.294 C180.95,151.294 174.687,157.558 174.687,165.279 C174.687,173.001 180.95,179.264 188.672,179.264 C196.393,179.264 202.657,173.001 202.657,165.279 C202.657,157.558 196.393,151.294 188.672,151.294" fill="#FF6600"></path>
        <path d="M188.672,137.509 C174.305,137.509 162.634,149.181 162.634,163.547 C162.634,177.914 174.305,189.585 188.672,189.585 C203.039,189.585 214.71,177.914 214.71,163.547 C214.71,149.181 203.039,137.509 188.672,137.509 Z M188.672,183.766 C177.522,183.766 168.453,174.697 168.453,163.547 C168.453,152.398 177.522,143.328 188.672,143.328 C199.821,143.328 208.891,152.398 208.891,163.547 C208.891,174.697 199.821,183.766 188.672,183.766 Z" fill="#FF6600"></path>
        <path d="M44.13,105.836 L44.13,92.234 C44.13,89.158 41.635,86.663 38.559,86.663 L24.956,86.663 C21.88,86.663 19.385,89.158 19.385,92.234 L19.385,105.836 C19.385,108.912 21.88,111.407 24.956,111.407 L38.559,111.407 C41.635,111.407 44.13,108.912 44.13,105.836" fill="#FF6600"></path>
        <path d="M236.111,105.836 L236.111,92.234 C236.111,89.158 233.616,86.663 230.54,86.663 L216.938,86.663 C213.862,86.663 211.367,89.158 211.367,92.234 L211.367,105.836 C211.367,108.912 213.862,111.407 216.938,111.407 L230.54,111.407 C233.616,111.407 236.111,108.912 236.111,105.836" fill="#FF6600"></path>
        <path d="M44.13,169.799 L44.13,156.197 C44.13,153.121 41.635,150.626 38.559,150.626 L24.956,150.626 C21.88,150.626 19.385,153.121 19.385,156.197 L19.385,169.799 C19.385,172.875 21.88,175.37 24.956,175.37 L38.559,175.37 C41.635,175.37 44.13,172.875 44.13,169.799" fill="#FF6600"></path>
        <path d="M236.111,169.799 L236.111,156.197 C236.111,153.121 233.616,150.626 230.54,150.626 L216.938,150.626 C213.862,150.626 211.367,153.121 211.367,156.197 L211.367,169.799 C211.367,172.875 213.862,175.37 216.938,175.37 L230.54,175.37 C233.616,175.37 236.111,172.875 236.111,169.799" fill="#FF6600"></path>
        <path d="M44.13,137.818 L44.13,124.215 C44.13,121.139 41.635,118.644 38.559,118.644 L24.956,118.644 C21.88,118.644 19.385,121.139 19.385,124.215 L19.385,137.818 C19.385,140.894 21.88,143.389 24.956,143.389 L38.559,143.389 C41.635,143.389 44.13,140.894 44.13,137.818" fill="#FF6600"></path>
        <path d="M236.111,137.818 L236.111,124.215 C236.111,121.139 233.616,118.644 230.54,118.644 L216.938,118.644 C213.862,118.644 211.367,121.139 211.367,124.215 L211.367,137.818 C211.367,140.894 213.862,143.389 216.938,143.389 L230.54,143.389 C233.616,143.389 236.111,140.894 236.111,137.818" fill="#FF6600"></path>
    </g>
</svg>