<?xml version="1.0" encoding="UTF-8"?>
<svg xmlns="http://www.w3.org/2000/svg" viewBox="0 0 512 512" fill="#6FDA44">
  <path d="M357.2,296.9c-17,0-33-7.2-47.4-18.9l3.5-16.6l0.1-0.6c3.2-17.6,13.1-47.2,43.8-47.2c23,0,41.7,18.7,41.7,41.7
    C398.9,278.2,380.2,296.9,357.2,296.9z M357.2,171.4c-39.3,0-69.8,25.6-82.2,67.4c-18.9-28.4-33.3-62.6-41.6-91.2h-42.5v110.1
    c0,21.7-17.6,39.3-39.3,39.3s-39.3-17.6-39.3-39.3V147.6H70.8v110.1c0,45,36.7,81.8,81.8,81.8s81.8-36.7,81.8-81.8v-18.4
    c8.2,17.1,18.2,34.4,30.4,49.6l-25.8,121.4h43.5l18.7-88c16.4,10.5,35.2,17.1,56.1,17.1c46.1,0,83.6-37.8,83.6-84.2
    C440.8,209,403.3,171.4,357.2,171.4"/>
</svg>