<?xml version="1.0" encoding="UTF-8"?>
<svg width="256px" height="256px" viewBox="0 0 256 256" version="1.1" xmlns="http://www.w3.org/2000/svg" preserveAspectRatio="xMidYMid">
    <g>
        <path d="M128,0 C57.28,0 0,57.28 0,128 C0,198.72 57.28,256 128,256 C198.72,256 256,198.72 256,128 C256,57.28 198.72,0 128,0 Z M128,51.2 C166.4,51.2 198.4,83.2 198.4,121.6 C198.4,160 166.4,192 128,192 C89.6,192 57.6,160 57.6,121.6 C57.6,83.2 89.6,51.2 128,51.2 Z" fill="#6C6BFF"></path>
        <path d="M128,76.8 C115.2,76.8 102.4,83.2 96,96 L160,96 C153.6,83.2 140.8,76.8 128,76.8 Z" fill="#6C6BFF"></path>
        <path d="M96,115.2 L160,115.2 C160,128 153.6,140.8 140.8,147.2 L115.2,147.2 C102.4,140.8 96,128 96,115.2 Z" fill="#6C6BFF"></path>
    </g>
</svg>