<?xml version="1.0" encoding="UTF-8"?>
<svg width="256px" height="256px" viewBox="0 0 256 256" version="1.1" xmlns="http://www.w3.org/2000/svg" preserveAspectRatio="xMidYMid">
    <g>
        <path d="M128,0 C57.28,0 0,57.28 0,128 C0,198.72 57.28,256 128,256 C198.72,256 256,198.72 256,128 C256,57.28 198.72,0 128,0 Z M128,38.4 C175.36,38.4 217.6,80.64 217.6,128 C217.6,175.36 175.36,217.6 128,217.6 C80.64,217.6 38.4,175.36 38.4,128 C38.4,80.64 80.64,38.4 128,38.4 Z" fill="#6C6BFF"></path>
        <path d="M128,76.8 C102.4,76.8 76.8,102.4 76.8,128 C76.8,153.6 102.4,179.2 128,179.2 C153.6,179.2 179.2,153.6 179.2,128 C179.2,102.4 153.6,76.8 128,76.8 Z" fill="#6C6BFF"></path>
    </g>
</svg>